<svg height="512" viewBox="0 0 60 60" width="512" xmlns="http://www.w3.org/2000/svg"><g id="Page-1" fill="none" fill-rule="evenodd"><g id="015---Podium" fill="rgb(0,0,0)" fill-rule="nonzero" transform="translate(-1)"><path id="Shape" d="m8.687 17.233c.119.006.236.01.354.01 1.9030923-.0267628 3.7106118-.8384277 4.995-2.243h1.964v31.1c-2.3264168.4784327-3.9970017 2.5248992-4 4.9v1h-1c-1.1045695 0-2 .8954305-2 2v4c0 1.1045695.8954305 2 2 2h40c1.1045695 0 2-.8954305 2-2v-4c0-1.1045695-.8954305-2-2-2h-1v-1c-.0029983-2.3751008-1.6735832-4.4215673-4-4.9v-31.1h1.958c1.3680303 1.4980776 3.3279425 2.3153481 5.355 2.233 2.1708583-.1139349 4.2037966-1.0993944 5.638-2.733 1.4565712-1.6425147 2.1885265-3.8034056 2.03-5.993-.338-4.998-4.343-8.418-9.981-8.507h-40.016c-5.621.089-9.626 3.509-9.964 8.511-.1581024 2.1775909.56467015 4.3274889 2.00614811 5.9673182 1.44147797 1.6398292 3.48096265 2.6322825 5.66085189 2.7546818zm7.251-6.233h30.125c.0887845.6908589.2791743 1.3648053.565 2h-31.256c.2860184-.635196.4767393-1.3091215.566-2zm35.062 47h-40v-4h40zm-3-7v1h-34v-1c0-1.6568542 1.3431458-3 3-3h28c1.6568542 0 3 1.3431458 3 3zm-24-5h-2v-26c0-.5522847.4477153-1 1-1s1 .4477153 1 1zm8 0h-2v-26c0-.5522847.4477153-1 1-1s1 .4477153 1 1zm8 0h-2v-26c0-.5522847.4477153-1 1-1s1 .4477153 1 1zm4 0h-2v-26c0-1.6568542-1.3431458-3-3-3s-3 1.3431458-3 3v26h-2v-26c0-1.6568542-1.3431458-3-3-3s-3 1.3431458-3 3v26h-2v-26c0-1.6568542-1.3431458-2.9999999-3-2.9999999s-3 1.3431457-3 2.9999999v26h-2v-31h26zm-8.318-44c-.706 1.15-2.555 2-4.682 2s-3.976-.85-4.682-2zm-32.667 6.646c.268-3.965 3.409-6.574 7.985-6.646h13.136c.632 2.309 3.42 4 6.864 4s6.232-1.691 6.864-4h13.12c4.592.072 7.733 2.681 8 6.646.1210643 1.6560143-.4313171 3.2908037-1.532 4.534-1.0825 1.2301373-2.6155732 1.9714351-4.252 2.056-2.7196272.0130744-4.9868138-2.0781684-5.193-4.79-.0711778-.96336821.2497617-1.91464707.89-2.638.6287357-.71662921 1.5200053-1.14928433 2.472-1.2 1.5076771-.07918939 2.798046 1.07023359 2.893 2.577.0625775.80593957-.3852957 1.5650467-1.121 1.9-.333354.1427141-.5633294.454706-.6010186.8153606-.0376891.3606545.1228145.7134523.4194606.9220027s.6829463.2401707 1.009558.0826367c1.4869355-.6859629 2.3977337-2.2169467 2.291-3.851-.1803207-2.59409242-2.402811-4.56721924-5-4.439-2.503559.12491195-4.6048543 1.92913752-5.107 4.385h-30.306c-.5010829-2.4560859-2.6024049-4.26068773-5.106-4.385-2.59910672-.13367797-4.82487241 1.84235681-5 4.439-.10966985 1.635177.80024619 3.1686719 2.288 3.856.3266117.157534.7129119.1259137 1.009558-.0826367.29664611-.2085504.45714972-.5613482.41946058-.9220027-.03768913-.3606546-.26766463-.6726465-.60101858-.8153606-.73529257-.3354109-1.18297786-1.09419953-1.121-1.9.09915099-1.50486377 1.38670083-2.65222067 2.893-2.578.9516704.05086814 1.8425729.48352008 2.471 1.2.6405592.72326799.962173 1.67440861.892 2.638-.1967286 2.7153838-2.4696096 4.8105318-5.192 4.786-1.63657764-.0848217-3.16967403-.8264913-4.252-2.057-1.10088717-1.2427307-1.65363198-2.8771679-1.533-4.533z"/></g></g></svg>